/* XPM */
static char *warclient-server[] = {
/* columns rows colors chars-per-pixel */
"31 32 213 2",
"   c #000000",
".  c #030508",
"X  c #06080A",
"o  c #0B0B0B",
"O  c #030913",
"+  c #030D1B",
"@  c #0A0D11",
"#  c #0E141B",
"$  c #141413",
"%  c #071425",
"&  c #1E221D",
"*  c #18253A",
"=  c #2D2E2C",
"-  c #212930",
";  c #35352F",
":  c #333432",
">  c #383639",
",  c #3B3A3B",
"<  c #0D2342",
"1  c #0F2949",
"2  c #1B2C43",
"3  c #1D2E48",
"4  c #19344B",
"5  c #1A3153",
"6  c #1C3458",
"7  c #1D3B5D",
"8  c #113260",
"9  c #1D3962",
"0  c #143C76",
"q  c #263340",
"w  c #23324A",
"e  c #243945",
"r  c #243957",
"t  c #2A3B53",
"y  c #2B3F59",
"u  c #2E4637",
"i  c #354C34",
"p  c #3F5020",
"a  c #375034",
"s  c #2A4548",
"d  c #2C4C49",
"f  c #294554",
"g  c #394348",
"h  c #3C4D4B",
"j  c #3C4753",
"k  c #384951",
"l  c #2A4566",
"z  c #2E466A",
"x  c #2A4E6E",
"c  c #214677",
"v  c #25487F",
"b  c #2F4B74",
"n  c #2D4B79",
"m  c #2E556C",
"M  c #2D547B",
"N  c #314467",
"B  c #3B4861",
"V  c #304F7A",
"C  c #365276",
"Z  c #423F42",
"A  c #41542D",
"S  c #44533C",
"D  c #4C5132",
"F  c #4F583E",
"G  c #525A38",
"H  c #546838",
"J  c #454344",
"K  c #47474A",
"L  c #484642",
"P  c #484648",
"I  c #484847",
"U  c #4A4B4A",
"Y  c #464C53",
"T  c #424C5A",
"R  c #4A4F53",
"E  c #4E504E",
"W  c #4B5B4A",
"Q  c #4B5152",
"!  c #4E565D",
"~  c #4F595F",
"^  c #52584A",
"/  c #535453",
"(  c #555B55",
")  c #535A5D",
"_  c #5B5B56",
"`  c #5A5C5A",
"'  c #575E66",
"]  c #545A6A",
"[  c #446146",
"{  c #4A6242",
"}  c #516941",
"|  c #5A6B45",
" . c #596D4B",
".. c #5F6751",
"X. c #5E605E",
"o. c #5D765A",
"O. c #426A7D",
"+. c #5F6160",
"@. c #5E656B",
"#. c #6A5E47",
"$. c #605E63",
"%. c #666444",
"&. c #62674E",
"*. c #646B43",
"=. c #6C6147",
"-. c #6B6A43",
";. c #656254",
":. c #64635E",
">. c #657359",
",. c #766F4A",
"<. c #77735D",
"1. c #747C51",
"2. c #636463",
"3. c #666966",
"4. c #696661",
"5. c #6D6B65",
"6. c #6C6C6C",
"7. c #656C71",
"8. c #65736F",
"9. c #6F706E",
"0. c #6F7170",
"q. c #6D7F77",
"w. c #757263",
"e. c #75726E",
"r. c #727371",
"t. c #777875",
"y. c #717A7C",
"u. c #7A7773",
"i. c #7D7A76",
"p. c #7C7C7B",
"a. c #274C83",
"s. c #294D83",
"d. c #295686",
"f. c #2E528B",
"g. c #2D5A89",
"h. c #2B5495",
"j. c #2B5699",
"k. c #2C589F",
"l. c #315484",
"z. c #37578A",
"x. c #3F5980",
"c. c #315B9E",
"v. c #3A5D97",
"b. c #2C5CA0",
"n. c #2D5CAA",
"m. c #305BA2",
"M. c #3A6691",
"N. c #2D61B6",
"B. c #3563AD",
"V. c #3665B2",
"C. c #3467BB",
"Z. c #3C6AB5",
"A. c #3A6AB9",
"S. c #3C70BA",
"D. c #2862C0",
"F. c #2768D2",
"G. c #396EC3",
"H. c #3D70C1",
"J. c #3971CE",
"K. c #3171DD",
"L. c #425F91",
"P. c #406A8E",
"I. c #436895",
"U. c #466AA4",
"Y. c #4370BD",
"T. c #5C82B0",
"R. c #708781",
"E. c #827450",
"W. c #837851",
"Q. c #867A5B",
"!. c #807F60",
"~. c #8E856E",
"^. c #84817C",
"/. c #89857E",
"(. c #999A7D",
"). c #A6997A",
"_. c #848483",
"`. c #898783",
"'. c #888688",
"]. c #8C8B85",
"[. c #8D8D8D",
"{. c #8F908B",
"}. c #928E89",
"|. c #93928E",
" X c #9A968D",
".X c #9A988F",
"XX c #939293",
"oX c #9C9B95",
"OX c #9D9C9A",
"+X c #9DA097",
"@X c #A3918A",
"#X c #A59B92",
"$X c #A2A193",
"%X c #A5A39D",
"&X c #A8A49B",
"*X c #AAA89E",
"=X c #A3A3A0",
"-X c #ABAAA3",
";X c #AFAEAA",
":X c #B1AEA5",
">X c #B1AFAB",
",X c #B3B0A6",
"<X c #B7B3AB",
"1X c #BEB5A2",
"2X c #BAB7AF",
"3X c #B1B2B2",
"4X c #BCBBB3",
"5X c #C1BFB9",
"6X c #C4C1BB",
"7X c #C8C4BB",
"8X c #CCCAC1",
"9X c #D0CCC2",
"0X c None",
/* pixels */
"0X0X0X0X                                      0X0X0X0X0X0X0X0X",
"0X0X                                              0X0X0X0X0X0X",
"                                                    0X0X0X0X0X",
"                                                    0X0X0X0X0X",
"            .                                       0X0X0X0X0X",
"      . _ -X,X-X-X-X-X=X%X$XoX.X X|.}.]./.i./ X       0X0X0X0X",
"      $ 8X8X<X>X-X-X=XOXoXXX[.].`.^.p.u.e.`.!.o       0X0X0X0X",
"      $ 9X=X3XOX'.p.p.9.3.2.` ` E U I J , / '.@       0X0X0X0X",
"      $ 9X=X3X@X}.u.!.U.6.r.2.9.6.` ` Z > L !.o         0X0X0X",
"      $ 8XOXXXI.!._.!.!.+._ ` / E Z Z , ; #.I.o         0X0X0X",
"      $ 5X#X}.R.u.6.u.6.2.( ` E / ! K Z = L u.o         0X0X0X",
"      $ 5XXXp.9.6.$.$.$._ E R Y R E g - = , e.o         0X0X0X",
"      $ 6X[.e.9.6.3.3.2.` ' ) w.Q.E.=.j 8 r 2.o         0X0X0X",
"      $ 4X_.3.2.2.$.` / Y :.~.).E.#._ ^ c 0 y .         0X0X0X",
"      $ 2Xp.2.3.2.$.` / 2..X1X+Xq.{ m d.m f 9 %         0X0X0X",
"      $ <Xt.( / / U P Y y.#X(.R.T.M.b.D.d.i s 1           0X0X",
"      $ ,Xe./ E U P J T 8.>. .o.O.F.K.H.M s u 4 O           0X",
"      $ -Xe.2.6.3.2.$.! W a [ H [ I.S.H.g.M h e +           0X",
"      $ *XoXp.i.u.e.6.! S A H | ..-.I.J.V.f.T t +           0X",
"        L oX*X-X&X#X X7...G *.1.,.;.I.A.Z.h.B 6 O             ",
"          & ; , ` 5.e./ h G w.!.-.#.] B.Y.v.N <               ",
"          o : L 4.e.3.L.l.k ! ;.p D z.N.B.a.9 +               ",
"          $ / :.:.:.' B.U.V l.C x l j.h.j.a.s.5 *           0X",
"0X                  + c.z v f.n.Z.n.G.k.m.f.m.C.w             ",
"0X0X                O l @ 3 2 6 z 5 b 3 n z r b #             ",
"0X0X                  o   . .   X   .   X . . .               ",
"0X0X0X                                                        ",
"0X0X0X0X0X0X0X                                                ",
"0X0X0X0X0X0X0X0X0X0X                                        0X",
"0X0X0X0X0X0X0X0X0X0X                                        0X",
"0X0X0X0X0X0X0X0X0X0X0X                                    0X0X",
"0X0X0X0X0X0X0X0X0X0X0X0X      0X0X0X0X0X0X0X        0X  0X0X0X"
};
