/* XPM */
static char *warclient[] = {
/* columns rows colors chars-per-pixel */
"32 32 257 2",
"   c #000000",
".  c #03040B",
"X  c #090C0C",
"o  c #020612",
"O  c #030B14",
"+  c #030C1E",
"@  c #090716",
"#  c #0B131C",
"$  c #121A1C",
"%  c #000F20",
"&  c #0B0A27",
"*  c #041323",
"=  c #05142C",
"-  c #091624",
";  c #0A172B",
":  c #0A1335",
">  c #051A37",
",  c #151E26",
"<  c #08233E",
"1  c #1B2329",
"2  c #17283B",
"3  c #1D3538",
"4  c #293D27",
"5  c #28363D",
"6  c #262D31",
"7  c #071C41",
"8  c #0E2343",
"9  c #09264A",
"0  c #0C2F5B",
"q  c #0A2B53",
"w  c #1B2F44",
"e  c #152B47",
"r  c #1D3144",
"t  c #1B334B",
"y  c #17304B",
"u  c #13325B",
"i  c #193656",
"p  c #112C52",
"a  c #0C3362",
"s  c #0F386D",
"d  c #173862",
"f  c #173B6D",
"g  c #1B3B66",
"h  c #163868",
"j  c #143C73",
"k  c #1A3E75",
"l  c #153D78",
"z  c #243A4E",
"x  c #2C3C4D",
"c  c #253847",
"v  c #213C53",
"b  c #2A3E5B",
"n  c #283C54",
"m  c #303E49",
"M  c #223D64",
"N  c #2D4117",
"B  c #344916",
"V  c #2B4529",
"C  c #2B4434",
"Z  c #2C4637",
"A  c #344D2D",
"S  c #374628",
"D  c #314C3B",
"F  c #364839",
"G  c #3F522B",
"H  c #3D593E",
"J  c #3C5032",
"K  c #1F416C",
"L  c #1F4264",
"P  c #1B4074",
"I  c #19417D",
"U  c #2E4F45",
"Y  c #2C4748",
"T  c #2D4352",
"R  c #2D445C",
"E  c #3A474B",
"W  c #334457",
"Q  c #364B5A",
"!  c #3B4A54",
"~  c #35475B",
"^  c #3D534D",
"/  c #395744",
"(  c #375A53",
")  c #365557",
"_  c #2B4364",
"`  c #274767",
"'  c #234473",
"]  c #294D7B",
"[  c #254979",
"{  c #2A536A",
"}  c #2A5177",
"|  c #324A65",
" . c #354963",
".. c #314E73",
"X. c #395067",
"o. c #355475",
"O. c #44531A",
"+. c #43493A",
"@. c #4C5C2B",
"#. c #455527",
"$. c #435D3C",
"%. c #4B5D3D",
"&. c #495734",
"*. c #50562A",
"=. c #5D5B34",
"-. c #565C3C",
";. c #424E2C",
":. c #4D632A",
">. c #4C6536",
",. c #536934",
"<. c #586838",
"1. c #536029",
"2. c #635E3C",
"3. c #67673B",
"4. c #6A743A",
"5. c #434A4E",
"6. c #444744",
"7. c #484C54",
"8. c #435C44",
"9. c #48544B",
"0. c #465456",
"q. c #5D5D42",
"w. c #565747",
"e. c #575B59",
"r. c #475766",
"t. c #425877",
"y. c #5C5E63",
"u. c #4B664D",
"i. c #556C44",
"p. c #57614E",
"a. c #5B645D",
"s. c #586858",
"d. c #587257",
"f. c #566B4C",
"g. c #4C6768",
"h. c #556566",
"j. c #586C74",
"k. c #536E7D",
"l. c #675C48",
"z. c #625C58",
"x. c #705E47",
"c. c #6D6343",
"v. c #626845",
"b. c #6B6854",
"n. c #6B7D4C",
"m. c #697547",
"M. c #716344",
"N. c #7C6E4B",
"B. c #756A46",
"V. c #75764A",
"C. c #7D7557",
"Z. c #687557",
"A. c #646966",
"S. c #667766",
"D. c #6B7776",
"F. c #6B7B75",
"G. c #797863",
"H. c #767874",
"J. c #1E498D",
"K. c #174588",
"L. c #1F549D",
"P. c #1C4F9A",
"I. c #1E55A6",
"U. c #1F5AB4",
"Y. c #254E8D",
"T. c #294F8E",
"R. c #295589",
"E. c #21549C",
"W. c #275697",
"Q. c #38598B",
"!. c #385B94",
"~. c #2356A5",
"^. c #245AAD",
"/. c #285CAB",
"(. c #235CB4",
"). c #275EB5",
"_. c #325DA1",
"`. c #2D619F",
"'. c #3D6099",
"]. c #2761BC",
"[. c #2D61B4",
"{. c #2A64BB",
"}. c #2460B5",
"|. c #3764A8",
" X c #3166BB",
".X c #3869B5",
"XX c #3E70B9",
"oX c #2A62AC",
"OX c #2462C4",
"+X c #2766CC",
"@X c #2F68C4",
"#X c #2B69CC",
"$X c #2866CB",
"%X c #2C6CD4",
"&X c #2B6EDC",
"*X c #2668D3",
"=X c #2E70DE",
"-X c #356CC3",
";X c #336DCA",
":X c #3A6EC3",
">X c #336FD0",
",X c #3D71C5",
"<X c #3C73CB",
"1X c #3571D2",
"2X c #3B76D6",
"3X c #3B79E1",
"4X c #415D8A",
"5X c #4A668A",
"6X c #4B6D9D",
"7X c #446799",
"8X c #51729F",
"9X c #4F6F8D",
"0X c #476CA6",
"qX c #416DB3",
"wX c #4A73AE",
"eX c #4F74A7",
"rX c #4573BD",
"tX c #4976BE",
"yX c #4A75B4",
"uX c #547BB5",
"iX c #4274C3",
"pX c #4779C8",
"aX c #467BD0",
"sX c #77815F",
"dX c #698075",
"fX c #75887C",
"gX c #658392",
"hX c #698CAC",
"jX c #5A84C0",
"kX c #628BC6",
"lX c #8E7F52",
"zX c #827857",
"xX c #917F51",
"cX c #82714B",
"vX c #827D6A",
"bX c #80855E",
"nX c #938558",
"mX c #878568",
"MX c #8A8272",
"NX c #968A68",
"BX c #92926A",
"VX c #969476",
"CX c #958D70",
"ZX c #A99D7B",
"AX c #A39874",
"SX c #8D938A",
"DX c #999A87",
"FX c #929993",
"GX c #A39B86",
"HX c #AAA58D",
"JX c #A4A49B",
"KX c #B3AD96",
"LX c #BDB59B",
"PX c #BBB8AB",
"IX c #C5BEA8",
"UX c #C6C3B7",
"YX c None",
/* pixels */
"YXYXYXYXYXYXYXYXYXYXYXYXYXYXYXYXYXYXYXYXYXYXYXYXYXYXYXYXYXYXYXYX",
"YXYXYXYXYXYXYXYXYXYX  O * - ; - - * + + o   YXYXYXYXYXYXYXYXYXYX",
"YXYXYXYXYXYXYXYXo ; r m ! 0.0.E E m t 9 9 > % .   YXYXYXYXYXYXYX",
"YXYXYXYXYXYX. ; t 0.e.b.C.C.C.zXN.c.q.E u 0 q > + . YXYXYXYXYXYX",
"YXYXYXYXYXO r ! h.G.vXNXnXnXnXnXcXc.c.w.W j s a 9 > @ YXYXYXYXYX",
"YXYXYXYX- T e.e.zXCXAXNXnXN.B.V.c.c.c.l.5.' K.l s 0 7 &   YXYXYX",
"YXYXYX+ W h.b.zXNXAXAXNXB.3.m.,.0.9.p.3.=.Q K.K.l l u 8 & YXYXYX",
"YXYX@ x h.mXCXZXKXLXHXGXsX3.:.$.) } } ^ &./ K.K.l s f g > @ YXYX",
"YX  t h.H.FXKXIXUXPXDXFXgXsX:.$./ ( L.L.R.{ ` T Y i L ` u = . YX",
"YX- r.D.SXJXPXUXIXDXgXhXjXdXu.( U ( L.U.U.L.[ H *.A t ` d 9 & YX",
"  c j.9XFXJXJXHXBXn.dXhXkXjXeX{ { `.U.}.OXU.L.U J A Z Y g 0 : @ ",
"% W D.MXSXVXVXBXsXsXfXfXgX<X@X}.}.$X#XXX XU.} D Z C Z D v h 7 @ ",
"; X.F.F.F.sXn.m.>.u.dXu.$.`.*X*X%X&X1XaXiXR.` U V V V F 5 d 9 : ",
"2 r.F.s.s./ H H H i.dXd.$.} *X&X&X=X2X2XyX( { E.} D C C C v q & ",
"y h.A.w.D V H H H i.i.>.:.( oXOX{.>X2X,X-XR.U L.L.) ! T 4 5 u = ",
"t g.s.J V A $.$.i.>.,.$.A :.d.k.d..XXX,X,X}.o.o.E.} 9.5.S n u : ",
"t 0.e.A N A 8.<.i.>.<.h.r.<.4.V.m.'.[.-XaX X~.W.E.t.w.7.6.b b : ",
"9 ! p.&.S #.>.,.<.:.m.b.b.3.4.B.m.5XOX@XpXiX).~.T.7.7. .5.M p : ",
"; T a.p.G #.*.:.:.,.n.m.B.M.=.c.A.oXOX;XiXiX[.~.P.Y.' b 5.g q & ",
"* t a.A.-.;.-.c.n.n.n.BXN.3.c.y.!._.Q.'.iXiX7XQ.E.J.7.6.b f 8 . ",
"O < ) a.s.-.-.b.vXmXmXbXzXB.M.z.z.z.z.!.$XtX.X_.qX!.z.7.k h :   ",
"YX* i 9.9.-.&.v.vXMXmX4.c.3.x.x.x.z.t.~.).tXrXqXqXQ.7.M k 8 o   ",
"YXO < 3 4 F w.b.G.mXC.:.O.*.=.=.l.t.~.~.).iXuX0XY.M M j u =   YX",
"K P P P _ F 5 5.r.F.G.#.B B O.*.w.T.^.). X.X.XW.k k ' u > @ YXYX",
"+X1X<X<XtXQ 5 i M r.p.;.N B B +.t.W.[. X[._.!.T.M Q.5X8 &     . ",
"&XXX~ n T 2 P P M W z ' L 5 c t k T.T._.k k K.I p k ..M M # u ` ",
"%X%X}.}.Q.y #X1XyX| ~.,X#X~.i J.:X#X).M k ;X1X<Xo.].tX_. Xb ).uX",
"%XpX6X6X5Xy +XuXQ k &X:X#XiX` $X<X@X2Xo./.pX| r.x ].qX[ 1X_.iX9X",
"%XwX1 X . 8 %X7X- h &XiXqX8X_ $XiXqXwX| ).;Xd f t {.qXi $X=XpXE ",
">XwX1 YXYX2 1X6X$ ; /.;XiX5X2 J.>X:XeX5 h ;X>XpXt. XwX5 ~.2X8X, ",
"b m X YXYX# b m X   ; b W 6 X # z ~ c @ O w R m 1 n m # w ~ 6 . ",
"YXYXYXYXYXYXYXYXYXYXYXYXYXYXYXYXYXYXYXYXYXYXYXYXYXYXYXYXYXYXYXYX"
};
