#define source_cursor_mask_width 23
#define source_cursor_mask_height 23
#define source_cursor_mask_x_hot 13
#define source_cursor_mask_y_hot 1
static unsigned char source_cursor_mask_bits[] = {
   0x00, 0x3e, 0x00, 0x80, 0xff, 0x00, 0xe0, 0xff, 0x03, 0xf8, 0xff, 0x0f,
   0xfe, 0xf7, 0x3f, 0xff, 0xf7, 0x7f, 0xff, 0xf7, 0x7f, 0x7f, 0x77, 0x7f,
   0x1f, 0x77, 0x7c, 0x07, 0x77, 0x70, 0x00, 0x77, 0x00, 0x00, 0x77, 0x00,
   0x00, 0x77, 0x00, 0x00, 0x77, 0x00, 0x00, 0x77, 0x00, 0x00, 0x77, 0x00,
   0x00, 0x77, 0x00, 0x00, 0x77, 0x00, 0x00, 0x77, 0x00, 0x00, 0x77, 0x00,
   0x00, 0x77, 0x00, 0x00, 0x77, 0x00, 0x00, 0x77, 0x00 };
