#define source_cursor_width 23
#define source_cursor_height 23
#define source_cursor_x_hot 13
#define source_cursor_y_hot 1
static unsigned char source_cursor_bits[] = {
   0x00, 0x00, 0x00, 0x00, 0x1c, 0x00, 0x00, 0x63, 0x00, 0xc0, 0x9c, 0x01,
   0x30, 0x63, 0x06, 0xcc, 0xa2, 0x19, 0x32, 0x22, 0x26, 0x0c, 0x22, 0x18,
   0x02, 0x22, 0x20, 0x00, 0x22, 0x00, 0x00, 0x22, 0x00, 0x00, 0x22, 0x00,
   0x00, 0x22, 0x00, 0x00, 0x22, 0x00, 0x00, 0x22, 0x00, 0x00, 0x22, 0x00,
   0x00, 0x22, 0x00, 0x00, 0x22, 0x00, 0x00, 0x22, 0x00, 0x00, 0x22, 0x00,
   0x00, 0x22, 0x00, 0x00, 0x22, 0x00, 0x00, 0x00, 0x00 };
