#define trade_cursor_mask_width 27
#define trade_cursor_mask_height 27
#define trade_cursor_mask_x_hot 13
#define trade_cursor_mask_y_hot 13
static unsigned char trade_cursor_mask_bits[] = {
   0x00, 0x00, 0x00, 0x00, 0x00, 0x00, 0x00, 0x00, 0x00, 0x00, 0x00, 0x00,
   0x00, 0x00, 0x00, 0x00, 0x80, 0xff, 0x03, 0x00, 0xe0, 0xff, 0x0f, 0x00,
   0xf0, 0xff, 0x1f, 0x00, 0xf0, 0xff, 0x1f, 0x00, 0xf0, 0xff, 0x1f, 0x00,
   0xf0, 0xff, 0x1f, 0x00, 0xf0, 0xff, 0xff, 0x00, 0xf0, 0xff, 0xff, 0x03,
   0xe0, 0xff, 0xff, 0x07, 0xf8, 0xff, 0xff, 0x07, 0xfe, 0xff, 0xff, 0x07,
   0xff, 0xff, 0xff, 0x07, 0xff, 0xff, 0xff, 0x07, 0xff, 0xff, 0xff, 0x07,
   0xff, 0xff, 0xff, 0x03, 0xff, 0xff, 0xff, 0x00, 0xff, 0xff, 0x01, 0x00,
   0xfe, 0xff, 0x00, 0x00, 0xf8, 0x3f, 0x00, 0x00, 0x00, 0x00, 0x00, 0x00,
   0x00, 0x00, 0x00, 0x00, 0x00, 0x00, 0x00, 0x00, 0x00, 0x00, 0x00, 0x00 };
