#define trade_cursor_width 27
#define trade_cursor_height 27
#define trade_cursor_x_hot 13
#define trade_cursor_y_hot 13
static unsigned char trade_cursor_bits[] = {
   0x00, 0x00, 0x00, 0x00, 0x00, 0x00, 0x00, 0x00, 0x00, 0x00, 0x00, 0x00,
   0x00, 0x00, 0x00, 0x00, 0x80, 0xff, 0x03, 0x00, 0xe0, 0x00, 0x0e, 0x00,
   0x30, 0xff, 0x19, 0x00, 0xd0, 0xc7, 0x17, 0x00, 0x10, 0xff, 0x11, 0x00,
   0xd0, 0x00, 0x16, 0x00, 0xd0, 0xff, 0xf7, 0x00, 0x30, 0x3f, 0x80, 0x03,
   0xe0, 0xc0, 0x7f, 0x06, 0xf8, 0xf7, 0xf1, 0x05, 0x0e, 0xe0, 0x7f, 0x04,
   0xf3, 0x1f, 0x80, 0x05, 0x7d, 0x7c, 0xff, 0x05, 0xf1, 0x1f, 0x7f, 0x06,
   0x0d, 0x60, 0x80, 0x03, 0xfd, 0x7f, 0xff, 0x00, 0xf3, 0x9f, 0x01, 0x00,
   0x0e, 0xe0, 0x00, 0x00, 0xf8, 0x3f, 0x00, 0x00, 0x00, 0x00, 0x00, 0x00,
   0x00, 0x00, 0x00, 0x00, 0x00, 0x00, 0x00, 0x00, 0x00, 0x00, 0x00, 0x00 };
